#!OML:ASF G:\ViconDB\ViconDB\414\test\team2\shane.ASF
:FULLY-SPECIFIED
:DEGREES
149
root 4.45024 11.0457 -11.2416 185.351 57.4117 66.8772
lowerback 27.3911 -3.06479 -1.981
upperback 10.3057 -3.27382 -0.423943
thorax -3.53258 -1.23214 1.60195
lowerneck -20.489 -9.15847 -16.3522
upperneck 5.77397 -6.48415 -4.52386
head 5.38576 -3.52263 0.35526
rclavicle 1.27222e-014 1.90833e-014
rhumerus 30.2139 15.2985 5.89818
rradius 97.4907
rwrist 51.052
rhand -53.9545 -19.3004
rfingers 7.12502
rthumb -26.3797 -47.4853
lclavicle 1.27222e-014 1.90833e-014
lhumerus 60.8706 14.299 33.2658
lradius 43.2485
lwrist -44.4007
lhand -64.2875 -136.49
lfingers 7.12502
lthumb -36.2233 -522.751
rfemur -50.786 -18.0809 -1.69658
rtibia 46.6489
rfoot -25.1256 -24.7313
rtoes -0.963413
lfemur -39.1214 26.15 20.4547
ltibia 87.6054
lfoot -9.81302 -31.6915
ltoes -5.39054
150
root 4.46196 10.7356 -10.6416 188.809 54.6883 71.6855
lowerback 27.6475 -3.88914 -1.0926
upperback 10.0641 -4.0621 -1.2901
thorax -4.02853 -1.51734 0.399692
lowerneck -19.4113 -7.90967 -12.7999
upperneck 7.09514 -6.01541 -4.90588
head 5.51313 -3.38901 -0.19955
rclavicle 9.54166e-014 6.36111e-014
rhumerus 30.2139 15.2985 5.89818
rradius 97.4907
rwrist 51.052
rhand -53.9545 -19.3004
rfingers 7.12502
rthumb -26.3797 -47.4853
lclavicle 9.54166e-014 6.36111e-014
lhumerus 61.0288 13.1987 30.0831
lradius 40.8204
lwrist -44.2617
lhand -63.7627 -138.396
lfingers 7.12502
lthumb -35.7261 -524.779
rfemur -49.991 -17.2487 -5.057
rtibia 45.1535
rfoot -24.8064 -26.0667
rtoes 1.09692
lfemur -40.8629 27.503 19.3804
ltibia 91.5958
lfoot -10.7096 -31.9904
ltoes -4.44803
151
root 4.45839 10.5796 -10.335 190.552 53.4437 74.2006
lowerback 27.4338 -3.69167 -1.4552
upperback 10.2164 -3.82253 -0.771222
thorax -3.6948 -1.41219 1.08455
lowerneck -19.2974 -7.92517 -12.5787
upperneck 7.71484 -6.11796 -4.65993
head 5.70021 -3.45852 -0.174106
rclavicle -1.20861e-013 -3.18055e-014
rhumerus 30.2139 15.2985 5.89818
rradius 97.4907
rwrist 51.052
rhand -53.9545 -19.3004
rfingers 7.12502
rthumb -26.3797 -47.4853
lclavicle -1.20861e-013 -3.18055e-014
lhumerus 61.3725 12.932 30.0249
lradius 39.4175
lwrist -44.3822
lhand -63.761 -139.613
lfingers 7.12502
lthumb -35.7245 -525.996
rfemur -49.861 -16.8402 -6.23168
rtibia 44.9813
rfoot -24.5855 -26.2531
rtoes 1.96049
lfemur -41.8563 28.6003 18.6358
ltibia 93.821
lfoot -11.4498 -31.755
ltoes -3.56488
152
root 4.45919 10.4175 -10.0313 192.014 51.8826 76.8109
lowerback 27.4012 -3.67841 -1.54142
upperback 10.5945 -3.69134 -0.219187
thorax -3.21383 -1.34436 1.68216
lowerneck -19.1989 -7.8587 -12.5549
upperneck 7.87158 -6.16852 -4.00963
head 5.7524 -3.46282 0.0240186
rclavicle 1.27222e-013 5.40694e-014
rhumerus 30.2139 15.2985 5.89818
rradius 97.4907
rwrist 51.052
rhand -53.9545 -19.3004
rfingers 7.12502
rthumb -26.3797 -47.4853
lclavicle 1.27222e-013 5.40694e-014
lhumerus 61.7664 12.6332 29.9074
lradius 38.0074
lwrist -44.7646
lhand -63.5359 -138.558
lfingers 7.12502
lthumb -35.5112 -524.993
rfemur -49.3308 -16.4423 -7.22988
rtibia 45.166
rfoot -24.2613 -26.6613
rtoes 2.46372
lfemur -42.7263 29.2629 17.7599
ltibia 95.8245
lfoot -12.36 -31.3345
ltoes -2.99505
153
root 4.45496 10.2541 -9.72314 193.214 50.1435 78.9264
lowerback 27.3396 -3.53109 -1.87523
upperback 10.862 -3.46899 0.33513
thorax -2.83073 -1.24282 2.40018
lowerneck -18.9029 -7.4522 -12.2101
upperneck 7.89666 -5.8848 -3.54342
head 5.70386 -3.30629 0.164096
rclavicle 2.52854e-013 2.44903e-013
rhumerus 30.2139 15.2985 5.89818
rradius 97.4907
rwrist 51.052
rhand -53.9545 -19.3004
rfingers 7.12502
rthumb -26.3797 -47.4853
lclavicle 2.52854e-013 2.44903e-013
lhumerus 62.0242 12.1218 28.1963
lradius 36.901
lwrist -43.1877
lhand -63.667 -139.255
lfingers 7.12502
lthumb -35.6354 -525.661
rfemur -48.9412 -16.2814 -8.39877
rtibia 45.5791
rfoot -24.099 -26.8701
rtoes 3.68962
lfemur -44.0406 29.9667 16.1627
ltibia 97.7667
lfoot -13.0637 -30.9252
ltoes -2.33722
154
root 4.44914 10.0838 -9.41331 194.598 48.4458 81.173
lowerback 26.0893 -2.57723 -2.76002
upperback 11.3836 -2.36453 1.32834
thorax -1.61532 -0.791547 3.62491
lowerneck -17.7613 -7.17612 -12.1014
upperneck 8.06906 -6.98207 -2.46323
head 5.62622 -4.13897 0.3761
rclavicle 4.13472e-014 -9.54166e-015
rhumerus 30.2139 15.2985 5.89818
rradius 97.4907
rwrist 51.052
rhand -53.9545 -19.3004
rfingers 7.12502
rthumb -26.3797 -47.4853
lclavicle 4.13472e-014 -9.54166e-015
lhumerus 63.7258 11.0325 27.4619
lradius 35.5822
lwrist -42.104
lhand -63.7717 -138.214
lfingers 7.12502
lthumb -35.7346 -524.595
rfemur -49.0254 -15.8386 -9.52304
rtibia 46.9475
rfoot -24.8814 -26.705
rtoes 2.00846
lfemur -45.4003 30.7026 14.3871
ltibia 99.5013
lfoot -13.3593 -30.8584
ltoes -2.01364
155
root 4.43358 9.90104 -9.10446 195.414 46.6156 83.0496
lowerback 26.0893 -2.57723 -2.76002
upperback 11.3836 -2.36453 1.32834
thorax -1.61532 -0.791547 3.62491
lowerneck -17.7613 -7.17612 -12.1014
upperneck 8.06906 -6.98207 -2.46323
head 5.62622 -4.13897 0.3761
rclavicle 4.13472e-014 -9.54166e-015
rhumerus 30.2139 15.2985 5.89818
rradius 97.4907
rwrist 51.052
rhand -53.9545 -19.3004
rfingers 7.12502
rthumb -26.3797 -47.4853
lclavicle 4.13472e-014 -9.54166e-015
lhumerus 63.7258 11.0325 27.4619
lradius 35.5822
lwrist -42.104
lhand -63.7717 -138.214
lfingers 7.12502
lthumb -35.7346 -524.595
rfemur -48.6854 -15.5915 -10.6501
rtibia 49.5135
rfoot -27.74 -18.6675
rtoes -7.71082
lfemur -46.4694 30.9652 12.2893
ltibia 100.936
lfoot -13.4744 -31.1497
ltoes -1.53742
